{"asset":{"generator":"glTF-Transform v4.5.1","version":"2.0"},"extras":{"homesteadOptimized":true},"accessors":[{"type":"SCALAR","componentType":5123,"count":56235,"normalized":false,"byteOffset":0,"bufferView":0},{"type":"VEC3","componentType":5122,"count":17068,"max":[23994,24639,32767],"min":[-23994,-24639,-32767],"normalized":true,"byteOffset":0,"bufferView":1},{"type":"VEC3","componentType":5122,"count":17068,"normalized":true,"byteOffset":0,"bufferView":2},{"type":"VEC2","componentType":5123,"count":17068,"normalized":true,"byteOffset":0,"bufferView":3}],"bufferViews":[{"buffer":1,"byteOffset":0,"byteLength":112470,"target":34963,"extensions":{"EXT_meshopt_compression":{"buffer":0,"byteOffset":0,"byteLength":20439,"mode":"TRIANGLES","byteStride":2,"count":56235}}},{"buffer":1,"byteOffset":112472,"byteLength":136544,"target":34962,"byteStride":8,"extensions":{"EXT_meshopt_compression":{"buffer":0,"byteOffset":20440,"byteLength":69573,"mode":"ATTRIBUTES","byteStride":8,"count":17068}}},{"buffer":1,"byteOffset":249016,"byteLength":136544,"target":34962,"byteStride":8,"extensions":{"EXT_meshopt_compression":{"buffer":0,"byteOffset":90016,"byteLength":85124,"mode":"ATTRIBUTES","byteStride":8,"count":17068}}},{"buffer":1,"byteOffset":385560,"byteLength":68272,"target":34962,"byteStride":4,"extensions":{"EXT_meshopt_compression":{"buffer":0,"byteOffset":175140,"byteLength":51255,"mode":"ATTRIBUTES","byteStride":4,"count":17068}}}],"samplers":[{"magFilter":9729,"minFilter":9987,"wrapS":10497,"wrapT":10497}],"textures":[{"source":1,"sampler":0,"extensions":{"KHR_texture_basisu":{"source":3}}},{"source":0,"sampler":0,"extensions":{"KHR_texture_basisu":{"source":4}}},{"source":2,"sampler":0,"extensions":{"KHR_texture_basisu":{"source":5}}}],"images":[{"name":"GothicBed_01_nor_gl","mimeType":"image/jpeg","uri":"textures/GothicBed_01_nor_gl_1k.jpg"},{"name":"GothicBed_01_diff","mimeType":"image/jpeg","uri":"textures/GothicBed_01_diff_1k.jpg"},{"name":"GothicBed_01_metallic-GothicBed_01_roughness","mimeType":"image/jpeg","uri":"textures/GothicBed_01_arm_1k.jpg"},{"uri":"textures/GothicBed_01_diff_1k.ktx2","mimeType":"image/ktx2"},{"uri":"textures/GothicBed_01_nor_gl_1k.ktx2","mimeType":"image/ktx2"},{"uri":"textures/GothicBed_01_arm_1k.ktx2","mimeType":"image/ktx2"}],"buffers":[{"uri":"compressed-0.bin","byteLength":226396},{"byteLength":453832,"extensions":{"EXT_meshopt_compression":{"fallback":true}}}],"materials":[{"name":"GothicBed_01","doubleSided":true,"pbrMetallicRoughness":{"baseColorTexture":{"index":0},"metallicRoughnessTexture":{"index":2}},"normalTexture":{"index":1}}],"meshes":[{"name":"Plane.004","primitives":[{"attributes":{"POSITION":1,"NORMAL":2,"TEXCOORD_0":3},"mode":4,"material":0,"indices":0}]}],"nodes":[{"name":"GothicBed_01","translation":[0.0355684757232666,0.7669200306626109,-0.03310540318489075],"scale":[1.0199999511241913,1.0199999511241913,1.0199999511241913],"mesh":0}],"scenes":[{"name":"Scene","nodes":[0]}],"scene":0,"extensionsUsed":["EXT_meshopt_compression","KHR_mesh_quantization","KHR_texture_basisu"],"extensionsRequired":["EXT_meshopt_compression","KHR_mesh_quantization"]}