{
  "asset": {
    "generator": "glTF-Transform v4.5.1",
    "version": "2.0"
  },
  "extras": {
    "homesteadOptimized": true
  },
  "accessors": [
    {
      "type": "SCALAR",
      "componentType": 5123,
      "count": 56235,
      "bufferView": 0,
      "byteOffset": 0
    },
    {
      "type": "VEC3",
      "componentType": 5126,
      "count": 17068,
      "max": [
        0.782444417476654,
        1.5338401794433594,
        0.9868945479393005
      ],
      "min": [
        -0.7113074660301208,
        -1.181181374931839e-7,
        -1.053105354309082
      ],
      "bufferView": 1,
      "byteOffset": 0
    },
    {
      "type": "VEC3",
      "componentType": 5126,
      "count": 17068,
      "bufferView": 1,
      "byteOffset": 12
    },
    {
      "type": "VEC2",
      "componentType": 5126,
      "count": 17068,
      "bufferView": 1,
      "byteOffset": 24
    }
  ],
  "bufferViews": [
    {
      "buffer": 0,
      "byteOffset": 0,
      "byteLength": 112472,
      "target": 34963
    },
    {
      "buffer": 0,
      "byteOffset": 112472,
      "byteLength": 546176,
      "byteStride": 32,
      "target": 34962
    }
  ],
  "samplers": [
    {
      "magFilter": 9729,
      "minFilter": 9987,
      "wrapS": 10497,
      "wrapT": 10497
    }
  ],
  "textures": [
    {
      "source": 1,
      "sampler": 0
    },
    {
      "source": 0,
      "sampler": 0
    },
    {
      "source": 2,
      "sampler": 0
    }
  ],
  "images": [
    {
      "name": "GothicBed_01_nor_gl",
      "mimeType": "image/jpeg",
      "uri": "textures/GothicBed_01_nor_gl_1k.jpg"
    },
    {
      "name": "GothicBed_01_diff",
      "mimeType": "image/jpeg",
      "uri": "textures/GothicBed_01_diff_1k.jpg"
    },
    {
      "name": "GothicBed_01_metallic-GothicBed_01_roughness",
      "mimeType": "image/jpeg",
      "uri": "textures/GothicBed_01_arm_1k.jpg"
    }
  ],
  "buffers": [
    {
      "uri": "GothicBed_01.bin",
      "byteLength": 658648
    }
  ],
  "materials": [
    {
      "name": "GothicBed_01",
      "doubleSided": true,
      "pbrMetallicRoughness": {
        "baseColorTexture": {
          "index": 0
        },
        "metallicRoughnessTexture": {
          "index": 2
        }
      },
      "normalTexture": {
        "index": 1
      }
    }
  ],
  "meshes": [
    {
      "name": "Plane.004",
      "primitives": [
        {
          "attributes": {
            "POSITION": 1,
            "NORMAL": 2,
            "TEXCOORD_0": 3
          },
          "mode": 4,
          "material": 0,
          "indices": 0
        }
      ]
    }
  ],
  "nodes": [
    {
      "name": "GothicBed_01",
      "mesh": 0
    }
  ],
  "scenes": [
    {
      "name": "Scene",
      "nodes": [
        0
      ]
    }
  ],
  "scene": 0
}