{"asset":{"generator":"glTF-Transform v4.5.1","version":"2.0"},"extras":{"homesteadOptimized":true},"accessors":[{"type":"SCALAR","componentType":5123,"count":13512,"normalized":false,"byteOffset":0,"bufferView":0},{"type":"VEC3","componentType":5122,"count":3995,"max":[16357,10633,32767],"min":[-16357,-10633,-32767],"normalized":true,"byteOffset":0,"bufferView":1},{"type":"VEC3","componentType":5122,"count":3995,"normalized":true,"byteOffset":0,"bufferView":2},{"type":"VEC2","componentType":5123,"count":3995,"normalized":true,"byteOffset":0,"bufferView":3}],"bufferViews":[{"buffer":1,"byteOffset":0,"byteLength":27024,"target":34963,"extensions":{"EXT_meshopt_compression":{"buffer":0,"byteOffset":0,"byteLength":4810,"mode":"TRIANGLES","byteStride":2,"count":13512}}},{"buffer":1,"byteOffset":27024,"byteLength":31960,"target":34962,"byteStride":8,"extensions":{"EXT_meshopt_compression":{"buffer":0,"byteOffset":4812,"byteLength":17079,"mode":"ATTRIBUTES","byteStride":8,"count":3995}}},{"buffer":1,"byteOffset":58984,"byteLength":31960,"target":34962,"byteStride":8,"extensions":{"EXT_meshopt_compression":{"buffer":0,"byteOffset":21892,"byteLength":22118,"mode":"ATTRIBUTES","byteStride":8,"count":3995}}},{"buffer":1,"byteOffset":90944,"byteLength":15980,"target":34962,"byteStride":4,"extensions":{"EXT_meshopt_compression":{"buffer":0,"byteOffset":44012,"byteLength":11661,"mode":"ATTRIBUTES","byteStride":4,"count":3995}}}],"samplers":[{"magFilter":9729,"minFilter":9987,"wrapS":10497,"wrapT":10497}],"textures":[{"source":1,"sampler":0,"extensions":{"KHR_texture_basisu":{"source":3}}},{"source":0,"sampler":0,"extensions":{"KHR_texture_basisu":{"source":4}}},{"source":2,"sampler":0,"extensions":{"KHR_texture_basisu":{"source":5}}}],"images":[{"name":"modern_coffee_table_01_nor_gl","mimeType":"image/jpeg","uri":"textures/modern_coffee_table_01_nor_gl_2k.jpg"},{"name":"modern_coffee_table_01_diff","mimeType":"image/jpeg","uri":"textures/modern_coffee_table_01_diff_2k.jpg"},{"name":"modern_coffee_table_01_rough","mimeType":"image/jpeg","uri":"textures/modern_coffee_table_01_rough_2k.jpg"},{"uri":"textures/modern_coffee_table_01_diff_2k.ktx2","mimeType":"image/ktx2"},{"uri":"textures/modern_coffee_table_01_nor_gl_2k.ktx2","mimeType":"image/ktx2"},{"uri":"textures/modern_coffee_table_01_rough_2k.ktx2","mimeType":"image/ktx2"}],"buffers":[{"uri":"compressed-0.bin","byteLength":55676},{"byteLength":106924,"extensions":{"EXT_meshopt_compression":{"fallback":true}}}],"materials":[{"name":"modern_coffee_table_01","doubleSided":true,"pbrMetallicRoughness":{"metallicFactor":0,"baseColorTexture":{"index":0},"metallicRoughnessTexture":{"index":2}},"normalTexture":{"index":1}}],"meshes":[{"name":"Cube.003","primitives":[{"attributes":{"POSITION":1,"NORMAL":2,"TEXCOORD_0":3},"mode":4,"material":0,"indices":0}]}],"nodes":[{"name":"modern_coffee_table_01","translation":[1.1920928955078125e-7,0.19488486647605896,0.0002459883689880371],"scale":[0.6009150147438049,0.6009150147438049,0.6009150147438049],"mesh":0}],"scenes":[{"name":"Scene","nodes":[0]}],"scene":0,"extensionsUsed":["EXT_meshopt_compression","KHR_mesh_quantization","KHR_texture_basisu"],"extensionsRequired":["EXT_meshopt_compression","KHR_mesh_quantization"]}