{
  "asset": {
    "generator": "glTF-Transform v4.5.1",
    "version": "2.0"
  },
  "extras": {
    "homesteadOptimized": true
  },
  "accessors": [
    {
      "type": "SCALAR",
      "componentType": 5123,
      "count": 13512,
      "bufferView": 0,
      "byteOffset": 0
    },
    {
      "type": "VEC3",
      "componentType": 5126,
      "count": 3995,
      "max": [
        0.3000001311302185,
        0.3898848593235016,
        0.601161003112793
      ],
      "min": [
        -0.2999998927116394,
        -0.00011512637138366699,
        -0.6006690263748169
      ],
      "bufferView": 1,
      "byteOffset": 0
    },
    {
      "type": "VEC3",
      "componentType": 5126,
      "count": 3995,
      "bufferView": 1,
      "byteOffset": 12
    },
    {
      "type": "VEC2",
      "componentType": 5126,
      "count": 3995,
      "bufferView": 1,
      "byteOffset": 24
    }
  ],
  "bufferViews": [
    {
      "buffer": 0,
      "byteOffset": 0,
      "byteLength": 27024,
      "target": 34963
    },
    {
      "buffer": 0,
      "byteOffset": 27024,
      "byteLength": 127840,
      "byteStride": 32,
      "target": 34962
    }
  ],
  "samplers": [
    {
      "magFilter": 9729,
      "minFilter": 9987,
      "wrapS": 10497,
      "wrapT": 10497
    }
  ],
  "textures": [
    {
      "source": 1,
      "sampler": 0
    },
    {
      "source": 0,
      "sampler": 0
    },
    {
      "source": 2,
      "sampler": 0
    }
  ],
  "images": [
    {
      "name": "modern_coffee_table_01_nor_gl",
      "mimeType": "image/jpeg",
      "uri": "textures/modern_coffee_table_01_nor_gl_2k.jpg"
    },
    {
      "name": "modern_coffee_table_01_diff",
      "mimeType": "image/jpeg",
      "uri": "textures/modern_coffee_table_01_diff_2k.jpg"
    },
    {
      "name": "modern_coffee_table_01_rough",
      "mimeType": "image/jpeg",
      "uri": "textures/modern_coffee_table_01_rough_2k.jpg"
    }
  ],
  "buffers": [
    {
      "uri": "modern_coffee_table_01.bin",
      "byteLength": 154864
    }
  ],
  "materials": [
    {
      "name": "modern_coffee_table_01",
      "doubleSided": true,
      "pbrMetallicRoughness": {
        "metallicFactor": 0,
        "baseColorTexture": {
          "index": 0
        },
        "metallicRoughnessTexture": {
          "index": 2
        }
      },
      "normalTexture": {
        "index": 1
      }
    }
  ],
  "meshes": [
    {
      "name": "Cube.003",
      "primitives": [
        {
          "attributes": {
            "POSITION": 1,
            "NORMAL": 2,
            "TEXCOORD_0": 3
          },
          "mode": 4,
          "material": 0,
          "indices": 0
        }
      ]
    }
  ],
  "nodes": [
    {
      "name": "modern_coffee_table_01",
      "mesh": 0
    }
  ],
  "scenes": [
    {
      "name": "Scene",
      "nodes": [
        0
      ]
    }
  ],
  "scene": 0
}