{"asset":{"generator":"glTF-Transform v4.5.1","version":"2.0"},"extras":{"homesteadOptimized":true},"accessors":[{"type":"SCALAR","componentType":5123,"count":18714,"normalized":false,"byteOffset":0,"bufferView":0},{"type":"SCALAR","componentType":5123,"count":2292,"normalized":false,"byteOffset":37428,"bufferView":0},{"type":"SCALAR","componentType":5123,"count":36,"normalized":false,"byteOffset":42012,"bufferView":0},{"type":"SCALAR","componentType":5123,"count":480,"normalized":false,"byteOffset":42084,"bufferView":0},{"type":"SCALAR","componentType":5123,"count":480,"normalized":false,"byteOffset":43044,"bufferView":0},{"type":"SCALAR","componentType":5123,"count":1536,"normalized":false,"byteOffset":44004,"bufferView":0},{"type":"SCALAR","componentType":5123,"count":672,"normalized":false,"byteOffset":47076,"bufferView":0},{"type":"SCALAR","componentType":5123,"count":5832,"normalized":false,"byteOffset":48420,"bufferView":0},{"type":"SCALAR","componentType":5123,"count":7188,"normalized":false,"byteOffset":60084,"bufferView":0},{"type":"SCALAR","componentType":5123,"count":84,"normalized":false,"byteOffset":74460,"bufferView":0},{"type":"SCALAR","componentType":5123,"count":672,"normalized":false,"byteOffset":74628,"bufferView":0},{"type":"SCALAR","componentType":5123,"count":480,"normalized":false,"byteOffset":75972,"bufferView":0},{"type":"SCALAR","componentType":5123,"count":480,"normalized":false,"byteOffset":76932,"bufferView":0},{"type":"VEC3","componentType":5122,"count":4377,"max":[19078,32767,23286],"min":[-19078,-32767,-23286],"normalized":true,"byteOffset":0,"bufferView":1},{"type":"VEC3","componentType":5122,"count":4377,"normalized":true,"byteOffset":0,"bufferView":2},{"type":"VEC2","componentType":5123,"count":4377,"normalized":true,"byteOffset":0,"bufferView":3},{"type":"VEC3","componentType":5122,"count":594,"max":[32767,1204,28395],"min":[-32767,-1204,-28395],"normalized":true,"byteOffset":0,"bufferView":4},{"type":"VEC3","componentType":5122,"count":594,"normalized":true,"byteOffset":0,"bufferView":5},{"type":"VEC2","componentType":5123,"count":594,"normalized":true,"byteOffset":0,"bufferView":6},{"type":"VEC3","componentType":5122,"count":24,"max":[1624,12477,32767],"min":[-1624,-12477,-32767],"normalized":true,"byteOffset":0,"bufferView":7},{"type":"VEC3","componentType":5122,"count":24,"normalized":true,"byteOffset":0,"bufferView":8},{"type":"VEC2","componentType":5123,"count":24,"normalized":true,"byteOffset":0,"bufferView":9},{"type":"VEC3","componentType":5122,"count":166,"max":[528,6248,32767],"min":[-528,-6248,-32767],"normalized":true,"byteOffset":0,"bufferView":10},{"type":"VEC3","componentType":5122,"count":166,"normalized":true,"byteOffset":0,"bufferView":11},{"type":"VEC2","componentType":5123,"count":166,"normalized":true,"byteOffset":0,"bufferView":12},{"type":"VEC3","componentType":5122,"count":166,"max":[528,6248,32767],"min":[-528,-6248,-32767],"normalized":true,"byteOffset":0,"bufferView":13},{"type":"VEC3","componentType":5122,"count":166,"normalized":true,"byteOffset":0,"bufferView":14},{"type":"VEC2","componentType":5123,"count":166,"normalized":true,"byteOffset":0,"bufferView":15},{"type":"VEC2","componentType":5123,"count":24,"normalized":true,"byteOffset":0,"bufferView":16},{"type":"VEC3","componentType":5122,"count":544,"max":[32767,1088,29191],"min":[-32767,-1088,-29191],"normalized":true,"byteOffset":0,"bufferView":17},{"type":"VEC3","componentType":5122,"count":544,"normalized":true,"byteOffset":0,"bufferView":18},{"type":"VEC2","componentType":5123,"count":544,"normalized":true,"byteOffset":0,"bufferView":19},{"type":"VEC3","componentType":5122,"count":209,"max":[32767,32767,13153],"min":[-32767,-32767,-13153],"normalized":true,"byteOffset":0,"bufferView":20},{"type":"VEC3","componentType":5122,"count":209,"normalized":true,"byteOffset":0,"bufferView":21},{"type":"VEC2","componentType":5123,"count":209,"normalized":true,"byteOffset":0,"bufferView":22},{"type":"VEC3","componentType":5122,"count":1964,"max":[32767,16277,5520],"min":[-32767,-16277,-5520],"normalized":true,"byteOffset":0,"bufferView":23},{"type":"VEC3","componentType":5122,"count":1964,"normalized":true,"byteOffset":0,"bufferView":24},{"type":"VEC2","componentType":5123,"count":1964,"normalized":true,"byteOffset":0,"bufferView":25},{"type":"VEC3","componentType":5122,"count":2464,"max":[32767,24134,5492],"min":[-32767,-24134,-5492],"normalized":true,"byteOffset":0,"bufferView":26},{"type":"VEC3","componentType":5122,"count":2464,"normalized":true,"byteOffset":0,"bufferView":27},{"type":"VEC2","componentType":5123,"count":2464,"normalized":true,"byteOffset":0,"bufferView":28},{"type":"VEC3","componentType":5122,"count":32,"max":[24006,17922,-2256],"min":[-24006,-12065,-5240],"normalized":true,"byteOffset":0,"bufferView":29},{"type":"VEC3","componentType":5122,"count":32,"normalized":true,"byteOffset":0,"bufferView":30},{"type":"VEC2","componentType":5123,"count":32,"normalized":true,"byteOffset":0,"bufferView":31},{"type":"VEC3","componentType":5122,"count":209,"max":[32767,32767,13153],"min":[-32767,-32767,-13153],"normalized":true,"byteOffset":0,"bufferView":32},{"type":"VEC3","componentType":5122,"count":209,"normalized":true,"byteOffset":0,"bufferView":33},{"type":"VEC2","componentType":5123,"count":209,"normalized":true,"byteOffset":0,"bufferView":34},{"type":"VEC3","componentType":5122,"count":209,"max":[32767,32767,13153],"min":[-32767,-32767,-13153],"normalized":true,"byteOffset":0,"bufferView":35},{"type":"VEC2","componentType":5123,"count":209,"normalized":true,"byteOffset":0,"bufferView":36},{"type":"VEC2","componentType":5123,"count":209,"normalized":true,"byteOffset":0,"bufferView":37},{"type":"VEC2","componentType":5123,"count":209,"normalized":true,"byteOffset":0,"bufferView":38},{"type":"VEC3","componentType":5122,"count":209,"max":[32767,32767,13153],"min":[-32767,-32767,-13153],"normalized":true,"byteOffset":0,"bufferView":39},{"type":"VEC2","componentType":5123,"count":209,"normalized":true,"byteOffset":0,"bufferView":40},{"type":"VEC3","componentType":5122,"count":24,"max":[1624,12477,32767],"min":[-1624,-12477,-32767],"normalized":true,"byteOffset":0,"bufferView":41},{"type":"VEC3","componentType":5122,"count":24,"normalized":true,"byteOffset":0,"bufferView":42},{"type":"VEC2","componentType":5123,"count":24,"normalized":true,"byteOffset":0,"bufferView":43},{"type":"VEC2","componentType":5123,"count":24,"normalized":true,"byteOffset":0,"bufferView":44},{"type":"VEC3","componentType":5122,"count":166,"max":[528,6248,32767],"min":[-528,-6248,-32767],"normalized":true,"byteOffset":0,"bufferView":45},{"type":"VEC3","componentType":5122,"count":166,"normalized":true,"byteOffset":0,"bufferView":46},{"type":"VEC2","componentType":5123,"count":166,"normalized":true,"byteOffset":0,"bufferView":47},{"type":"VEC3","componentType":5122,"count":166,"max":[528,6248,32767],"min":[-528,-6248,-32767],"normalized":true,"byteOffset":0,"bufferView":48},{"type":"VEC2","componentType":5123,"count":166,"normalized":true,"byteOffset":0,"bufferView":49}],"bufferViews":[{"buffer":1,"byteOffset":0,"byteLength":77892,"target":34963,"extensions":{"EXT_meshopt_compression":{"buffer":0,"byteOffset":0,"byteLength":13996,"mode":"TRIANGLES","byteStride":2,"count":38946}}},{"buffer":1,"byteOffset":77892,"byteLength":35016,"target":34962,"byteStride":8,"extensions":{"EXT_meshopt_compression":{"buffer":0,"byteOffset":13996,"byteLength":18155,"mode":"ATTRIBUTES","byteStride":8,"count":4377}}},{"buffer":1,"byteOffset":112908,"byteLength":35016,"target":34962,"byteStride":8,"extensions":{"EXT_meshopt_compression":{"buffer":0,"byteOffset":32152,"byteLength":17951,"mode":"ATTRIBUTES","byteStride":8,"count":4377}}},{"buffer":1,"byteOffset":147924,"byteLength":17508,"target":34962,"byteStride":4,"extensions":{"EXT_meshopt_compression":{"buffer":0,"byteOffset":50104,"byteLength":12643,"mode":"ATTRIBUTES","byteStride":4,"count":4377}}},{"buffer":1,"byteOffset":165432,"byteLength":4752,"target":34962,"byteStride":8,"extensions":{"EXT_meshopt_compression":{"buffer":0,"byteOffset":62748,"byteLength":2670,"mode":"ATTRIBUTES","byteStride":8,"count":594}}},{"buffer":1,"byteOffset":170184,"byteLength":4752,"target":34962,"byteStride":8,"extensions":{"EXT_meshopt_compression":{"buffer":0,"byteOffset":65420,"byteLength":3399,"mode":"ATTRIBUTES","byteStride":8,"count":594}}},{"buffer":1,"byteOffset":174936,"byteLength":2376,"target":34962,"byteStride":4,"extensions":{"EXT_meshopt_compression":{"buffer":0,"byteOffset":68820,"byteLength":1701,"mode":"ATTRIBUTES","byteStride":4,"count":594}}},{"buffer":1,"byteOffset":177312,"byteLength":192,"target":34962,"byteStride":8,"extensions":{"EXT_meshopt_compression":{"buffer":0,"byteOffset":70524,"byteLength":130,"mode":"ATTRIBUTES","byteStride":8,"count":24}}},{"buffer":1,"byteOffset":177504,"byteLength":192,"target":34962,"byteStride":8,"extensions":{"EXT_meshopt_compression":{"buffer":0,"byteOffset":70656,"byteLength":90,"mode":"ATTRIBUTES","byteStride":8,"count":24}}},{"buffer":1,"byteOffset":177696,"byteLength":96,"target":34962,"byteStride":4,"extensions":{"EXT_meshopt_compression":{"buffer":0,"byteOffset":70748,"byteLength":106,"mode":"ATTRIBUTES","byteStride":4,"count":24}}},{"buffer":1,"byteOffset":177792,"byteLength":1328,"target":34962,"byteStride":8,"extensions":{"EXT_meshopt_compression":{"buffer":0,"byteOffset":70856,"byteLength":770,"mode":"ATTRIBUTES","byteStride":8,"count":166}}},{"buffer":1,"byteOffset":179120,"byteLength":1328,"target":34962,"byteStride":8,"extensions":{"EXT_meshopt_compression":{"buffer":0,"byteOffset":71628,"byteLength":329,"mode":"ATTRIBUTES","byteStride":8,"count":166}}},{"buffer":1,"byteOffset":180448,"byteLength":664,"target":34962,"byteStride":4,"extensions":{"EXT_meshopt_compression":{"buffer":0,"byteOffset":71960,"byteLength":440,"mode":"ATTRIBUTES","byteStride":4,"count":166}}},{"buffer":1,"byteOffset":181112,"byteLength":1328,"target":34962,"byteStride":8,"extensions":{"EXT_meshopt_compression":{"buffer":0,"byteOffset":72400,"byteLength":775,"mode":"ATTRIBUTES","byteStride":8,"count":166}}},{"buffer":1,"byteOffset":182440,"byteLength":1328,"target":34962,"byteStride":8,"extensions":{"EXT_meshopt_compression":{"buffer":0,"byteOffset":73176,"byteLength":331,"mode":"ATTRIBUTES","byteStride":8,"count":166}}},{"buffer":1,"byteOffset":183768,"byteLength":664,"target":34962,"byteStride":4,"extensions":{"EXT_meshopt_compression":{"buffer":0,"byteOffset":73508,"byteLength":447,"mode":"ATTRIBUTES","byteStride":4,"count":166}}},{"buffer":1,"byteOffset":184432,"byteLength":96,"target":34962,"byteStride":4,"extensions":{"EXT_meshopt_compression":{"buffer":0,"byteOffset":73956,"byteLength":106,"mode":"ATTRIBUTES","byteStride":4,"count":24}}},{"buffer":1,"byteOffset":184528,"byteLength":4352,"target":34962,"byteStride":8,"extensions":{"EXT_meshopt_compression":{"buffer":0,"byteOffset":74064,"byteLength":2634,"mode":"ATTRIBUTES","byteStride":8,"count":544}}},{"buffer":1,"byteOffset":188880,"byteLength":4352,"target":34962,"byteStride":8,"extensions":{"EXT_meshopt_compression":{"buffer":0,"byteOffset":76700,"byteLength":3039,"mode":"ATTRIBUTES","byteStride":8,"count":544}}},{"buffer":1,"byteOffset":193232,"byteLength":2176,"target":34962,"byteStride":4,"extensions":{"EXT_meshopt_compression":{"buffer":0,"byteOffset":79740,"byteLength":1667,"mode":"ATTRIBUTES","byteStride":4,"count":544}}},{"buffer":1,"byteOffset":195408,"byteLength":1672,"target":34962,"byteStride":8,"extensions":{"EXT_meshopt_compression":{"buffer":0,"byteOffset":81408,"byteLength":1203,"mode":"ATTRIBUTES","byteStride":8,"count":209}}},{"buffer":1,"byteOffset":197080,"byteLength":1672,"target":34962,"byteStride":8,"extensions":{"EXT_meshopt_compression":{"buffer":0,"byteOffset":82612,"byteLength":824,"mode":"ATTRIBUTES","byteStride":8,"count":209}}},{"buffer":1,"byteOffset":198752,"byteLength":836,"target":34962,"byteStride":4,"extensions":{"EXT_meshopt_compression":{"buffer":0,"byteOffset":83436,"byteLength":577,"mode":"ATTRIBUTES","byteStride":4,"count":209}}},{"buffer":1,"byteOffset":199588,"byteLength":15712,"target":34962,"byteStride":8,"extensions":{"EXT_meshopt_compression":{"buffer":0,"byteOffset":84016,"byteLength":7910,"mode":"ATTRIBUTES","byteStride":8,"count":1964}}},{"buffer":1,"byteOffset":215300,"byteLength":15712,"target":34962,"byteStride":8,"extensions":{"EXT_meshopt_compression":{"buffer":0,"byteOffset":91928,"byteLength":6450,"mode":"ATTRIBUTES","byteStride":8,"count":1964}}},{"buffer":1,"byteOffset":231012,"byteLength":7856,"target":34962,"byteStride":4,"extensions":{"EXT_meshopt_compression":{"buffer":0,"byteOffset":98380,"byteLength":5299,"mode":"ATTRIBUTES","byteStride":4,"count":1964}}},{"buffer":1,"byteOffset":238868,"byteLength":19712,"target":34962,"byteStride":8,"extensions":{"EXT_meshopt_compression":{"buffer":0,"byteOffset":103680,"byteLength":10019,"mode":"ATTRIBUTES","byteStride":8,"count":2464}}},{"buffer":1,"byteOffset":258580,"byteLength":19712,"target":34962,"byteStride":8,"extensions":{"EXT_meshopt_compression":{"buffer":0,"byteOffset":113700,"byteLength":7831,"mode":"ATTRIBUTES","byteStride":8,"count":2464}}},{"buffer":1,"byteOffset":278292,"byteLength":9856,"target":34962,"byteStride":4,"extensions":{"EXT_meshopt_compression":{"buffer":0,"byteOffset":121532,"byteLength":6667,"mode":"ATTRIBUTES","byteStride":4,"count":2464}}},{"buffer":1,"byteOffset":288148,"byteLength":256,"target":34962,"byteStride":8,"extensions":{"EXT_meshopt_compression":{"buffer":0,"byteOffset":128200,"byteLength":167,"mode":"ATTRIBUTES","byteStride":8,"count":32}}},{"buffer":1,"byteOffset":288404,"byteLength":256,"target":34962,"byteStride":8,"extensions":{"EXT_meshopt_compression":{"buffer":0,"byteOffset":128368,"byteLength":50,"mode":"ATTRIBUTES","byteStride":8,"count":32}}},{"buffer":1,"byteOffset":288660,"byteLength":128,"target":34962,"byteStride":4,"extensions":{"EXT_meshopt_compression":{"buffer":0,"byteOffset":128420,"byteLength":140,"mode":"ATTRIBUTES","byteStride":4,"count":32}}},{"buffer":1,"byteOffset":288788,"byteLength":1672,"target":34962,"byteStride":8,"extensions":{"EXT_meshopt_compression":{"buffer":0,"byteOffset":128560,"byteLength":1196,"mode":"ATTRIBUTES","byteStride":8,"count":209}}},{"buffer":1,"byteOffset":290460,"byteLength":1672,"target":34962,"byteStride":8,"extensions":{"EXT_meshopt_compression":{"buffer":0,"byteOffset":129756,"byteLength":813,"mode":"ATTRIBUTES","byteStride":8,"count":209}}},{"buffer":1,"byteOffset":292132,"byteLength":836,"target":34962,"byteStride":4,"extensions":{"EXT_meshopt_compression":{"buffer":0,"byteOffset":130572,"byteLength":579,"mode":"ATTRIBUTES","byteStride":4,"count":209}}},{"buffer":1,"byteOffset":292968,"byteLength":1672,"target":34962,"byteStride":8,"extensions":{"EXT_meshopt_compression":{"buffer":0,"byteOffset":131152,"byteLength":1196,"mode":"ATTRIBUTES","byteStride":8,"count":209}}},{"buffer":1,"byteOffset":294640,"byteLength":836,"target":34962,"byteStride":4,"extensions":{"EXT_meshopt_compression":{"buffer":0,"byteOffset":132348,"byteLength":572,"mode":"ATTRIBUTES","byteStride":4,"count":209}}},{"buffer":1,"byteOffset":295476,"byteLength":836,"target":34962,"byteStride":4,"extensions":{"EXT_meshopt_compression":{"buffer":0,"byteOffset":132920,"byteLength":570,"mode":"ATTRIBUTES","byteStride":4,"count":209}}},{"buffer":1,"byteOffset":296312,"byteLength":836,"target":34962,"byteStride":4,"extensions":{"EXT_meshopt_compression":{"buffer":0,"byteOffset":133492,"byteLength":585,"mode":"ATTRIBUTES","byteStride":4,"count":209}}},{"buffer":1,"byteOffset":297148,"byteLength":1672,"target":34962,"byteStride":8,"extensions":{"EXT_meshopt_compression":{"buffer":0,"byteOffset":134080,"byteLength":1196,"mode":"ATTRIBUTES","byteStride":8,"count":209}}},{"buffer":1,"byteOffset":298820,"byteLength":836,"target":34962,"byteStride":4,"extensions":{"EXT_meshopt_compression":{"buffer":0,"byteOffset":135276,"byteLength":580,"mode":"ATTRIBUTES","byteStride":4,"count":209}}},{"buffer":1,"byteOffset":299656,"byteLength":192,"target":34962,"byteStride":8,"extensions":{"EXT_meshopt_compression":{"buffer":0,"byteOffset":135856,"byteLength":128,"mode":"ATTRIBUTES","byteStride":8,"count":24}}},{"buffer":1,"byteOffset":299848,"byteLength":192,"target":34962,"byteStride":8,"extensions":{"EXT_meshopt_compression":{"buffer":0,"byteOffset":135984,"byteLength":99,"mode":"ATTRIBUTES","byteStride":8,"count":24}}},{"buffer":1,"byteOffset":300040,"byteLength":96,"target":34962,"byteStride":4,"extensions":{"EXT_meshopt_compression":{"buffer":0,"byteOffset":136084,"byteLength":107,"mode":"ATTRIBUTES","byteStride":4,"count":24}}},{"buffer":1,"byteOffset":300136,"byteLength":96,"target":34962,"byteStride":4,"extensions":{"EXT_meshopt_compression":{"buffer":0,"byteOffset":136192,"byteLength":107,"mode":"ATTRIBUTES","byteStride":4,"count":24}}},{"buffer":1,"byteOffset":300232,"byteLength":1328,"target":34962,"byteStride":8,"extensions":{"EXT_meshopt_compression":{"buffer":0,"byteOffset":136300,"byteLength":786,"mode":"ATTRIBUTES","byteStride":8,"count":166}}},{"buffer":1,"byteOffset":301560,"byteLength":1328,"target":34962,"byteStride":8,"extensions":{"EXT_meshopt_compression":{"buffer":0,"byteOffset":137088,"byteLength":366,"mode":"ATTRIBUTES","byteStride":8,"count":166}}},{"buffer":1,"byteOffset":302888,"byteLength":664,"target":34962,"byteStride":4,"extensions":{"EXT_meshopt_compression":{"buffer":0,"byteOffset":137456,"byteLength":444,"mode":"ATTRIBUTES","byteStride":4,"count":166}}},{"buffer":1,"byteOffset":303552,"byteLength":1328,"target":34962,"byteStride":8,"extensions":{"EXT_meshopt_compression":{"buffer":0,"byteOffset":137900,"byteLength":786,"mode":"ATTRIBUTES","byteStride":8,"count":166}}},{"buffer":1,"byteOffset":304880,"byteLength":664,"target":34962,"byteStride":4,"extensions":{"EXT_meshopt_compression":{"buffer":0,"byteOffset":138688,"byteLength":444,"mode":"ATTRIBUTES","byteStride":4,"count":166}}}],"samplers":[{"magFilter":9729,"minFilter":9987,"wrapS":10497,"wrapT":10497}],"textures":[{"source":1,"sampler":0,"extensions":{"KHR_texture_basisu":{"source":3}}},{"source":0,"sampler":0,"extensions":{"KHR_texture_basisu":{"source":4}}},{"source":2,"sampler":0,"extensions":{"KHR_texture_basisu":{"source":5}}}],"images":[{"name":"electric_stove_nor_gl","mimeType":"image/jpeg","uri":"textures/electric_stove_nor_gl_1k.jpg"},{"name":"electric_stove_diff","mimeType":"image/jpeg","uri":"textures/electric_stove_diff_1k.jpg"},{"name":"electric_stove_metal-electric_stove_rough","mimeType":"image/jpeg","uri":"textures/electric_stove_arm_1k.jpg"},{"uri":"textures/electric_stove_diff_1k.ktx2","mimeType":"image/ktx2"},{"uri":"textures/electric_stove_nor_gl_1k.ktx2","mimeType":"image/ktx2"},{"uri":"textures/electric_stove_arm_1k.ktx2","mimeType":"image/ktx2"}],"buffers":[{"uri":"compressed-0.bin","byteLength":139132},{"byteLength":305544,"extensions":{"EXT_meshopt_compression":{"fallback":true}}}],"materials":[{"name":"electric_stove","doubleSided":true,"pbrMetallicRoughness":{"baseColorTexture":{"index":0},"metallicRoughnessTexture":{"index":2}},"normalTexture":{"index":1}},{"name":"electric_stove_glass","alphaMode":"BLEND","doubleSided":true,"pbrMetallicRoughness":{"baseColorTexture":{"index":0},"metallicRoughnessTexture":{"index":2}},"normalTexture":{"index":1}}],"meshes":[{"name":"Cube.014","primitives":[{"attributes":{"POSITION":13,"NORMAL":14,"TEXCOORD_0":15},"mode":4,"material":0,"indices":0}]},{"name":"Plane.015","primitives":[{"attributes":{"POSITION":16,"NORMAL":17,"TEXCOORD_0":18},"mode":4,"material":0,"indices":1}]},{"name":"Plane.014","primitives":[{"attributes":{"POSITION":19,"NORMAL":20,"TEXCOORD_0":21},"mode":4,"material":0,"indices":2}]},{"name":"Plane.013","primitives":[{"attributes":{"POSITION":22,"NORMAL":23,"TEXCOORD_0":24},"mode":4,"material":0,"indices":3}]},{"name":"Plane.010","primitives":[{"attributes":{"POSITION":25,"NORMAL":26,"TEXCOORD_0":27},"mode":4,"material":0,"indices":4}]},{"name":"Plane.009","primitives":[{"attributes":{"TEXCOORD_0":28,"POSITION":19,"NORMAL":20},"mode":4,"material":0,"indices":2}]},{"name":"Plane.011","primitives":[{"attributes":{"POSITION":29,"NORMAL":30,"TEXCOORD_0":31},"mode":4,"material":0,"indices":5}]},{"name":"Cylinder.003","primitives":[{"attributes":{"POSITION":32,"NORMAL":33,"TEXCOORD_0":34},"mode":4,"material":0,"indices":6}]},{"name":"Cube.018","primitives":[{"attributes":{"POSITION":35,"NORMAL":36,"TEXCOORD_0":37},"mode":4,"material":0,"indices":7}]},{"name":"Cube.015","primitives":[{"attributes":{"POSITION":38,"NORMAL":39,"TEXCOORD_0":40},"mode":4,"material":0,"indices":8},{"attributes":{"POSITION":41,"NORMAL":42,"TEXCOORD_0":43},"mode":4,"material":1,"indices":9}]},{"name":"Cylinder.001","primitives":[{"attributes":{"POSITION":44,"NORMAL":45,"TEXCOORD_0":46},"mode":4,"material":0,"indices":10}]},{"name":"Cylinder.002","primitives":[{"attributes":{"POSITION":47,"TEXCOORD_0":48,"NORMAL":45},"mode":4,"material":0,"indices":10}]},{"name":"Cylinder.006","primitives":[{"attributes":{"TEXCOORD_0":49,"POSITION":47,"NORMAL":45},"mode":4,"material":0,"indices":10}]},{"name":"Cylinder.007","primitives":[{"attributes":{"TEXCOORD_0":50,"POSITION":47,"NORMAL":45},"mode":4,"material":0,"indices":10}]},{"name":"Cylinder.008","primitives":[{"attributes":{"POSITION":51,"TEXCOORD_0":52,"NORMAL":45},"mode":4,"material":0,"indices":10}]},{"name":"Plane.002","primitives":[{"attributes":{"POSITION":53,"NORMAL":54,"TEXCOORD_0":55},"mode":4,"material":0,"indices":2}]},{"name":"Plane.004","primitives":[{"attributes":{"TEXCOORD_0":56,"NORMAL":54,"POSITION":53},"mode":4,"material":0,"indices":2}]},{"name":"Plane.005","primitives":[{"attributes":{"POSITION":57,"NORMAL":58,"TEXCOORD_0":59},"mode":4,"material":0,"indices":11}]},{"name":"Plane.006","primitives":[{"attributes":{"POSITION":60,"TEXCOORD_0":61,"NORMAL":58},"mode":4,"material":0,"indices":12}]}],"nodes":[{"name":"stovetop","translation":[0,0.42934858798980713,0.005127474665641785],"scale":[0.42934858798980713,0.42934858798980713,0.42934858798980713],"mesh":0},{"name":"sheet","translation":[7.450580596923828e-9,0.2188616255298257,0.05945702642202377],"scale":[0.2246539667248726,0.2246539667248726,0.2246539667248726],"mesh":1},{"name":"hinge_bottom_attachment_left","translation":[-0.235964446736034,0.10103944258298725,0.2816640251548961],"scale":[0.012310128775425255,0.012310128775425255,0.012310128775425255],"mesh":2},{"name":"hinge_bottom_rotator_left","translation":[-0.2359643904492259,0.13412275700829923,0.2556524728424847],"scale":[0.03798917727544904,0.03798917727544904,0.03798917727544904],"mesh":3},{"name":"hinge_top_rotator_left","translation":[-0.2359643904492259,0.3909168818499893,0.2556524728424847],"scale":[0.03798917727544904,0.03798917727544904,0.03798917727544904],"mesh":4},{"name":"hinge_top_attachment_left","translation":[-0.235964446736034,0.3578336046775803,0.2816640251548961],"scale":[0.012310128775425255,0.012310128775425255,0.012310128775425255],"mesh":5},{"name":"grid","translation":[0,0.5318713696906343,0.05561329424381256],"scale":[0.22470395267009735,0.22470395267009735,0.22470395267009735],"mesh":6},{"name":"dial_1","translation":[-0.10651382803916931,0.7884785300120711,0.3087660394376144],"scale":[0.022447914816439152,0.022447914816439152,0.022447914816439152],"mesh":7},{"name":"handle_bottom_attachment","translation":[-7.450580596923828e-8,0.22290459275245667,0.3046348597854376],"scale":[0.25129736959934235,0.25129736959934235,0.25129736959934235],"mesh":8},{"name":"door_top","translation":[0,0.5399460047483444,0.305493101477623],"scale":[0.25129735469818115,0.25129735469818115,0.25129735469818115],"mesh":9},{"name":"dial_2","translation":[-0.04814924858510494,0.7884785560891032,0.3087660507299006],"scale":[0.022447914816439152,0.022447914816439152,0.022447914816439152],"mesh":10},{"name":"dial_3","translation":[0.010215312242507935,0.7884785560891032,0.3087660507299006],"scale":[0.022447914816439152,0.022447914816439152,0.022447914816439152],"mesh":11},{"name":"dial_4","translation":[0.06857986748218536,0.7884785560891032,0.3087660507299006],"scale":[0.022447914816439152,0.022447914816439152,0.022447914816439152],"mesh":12},{"name":"dial_5","translation":[0.12694445252418518,0.7884785560891032,0.3087660507299006],"scale":[0.022447914816439152,0.022447914816439152,0.022447914816439152],"mesh":13},{"name":"dial_6","translation":[0.1853090077638626,0.7884785560891032,0.3087660507299006],"scale":[0.022447914816439152,0.022447914816439152,0.022447914816439152],"mesh":14},{"name":"hinge_top_attachment_right","translation":[0.23596444725990295,0.35783360223285854,0.28166404576040804],"scale":[0.012310128891840577,0.012310128891840577,0.012310128891840577],"mesh":15},{"name":"hinge_bottom_attachment_right","translation":[0.23596444725990295,0.10103946249000728,0.28166404576040804],"scale":[0.012310128891840577,0.012310128891840577,0.012310128891840577],"mesh":16},{"name":"hinge_bottom_rotator_right","translation":[0.23596443235874176,0.13412283710204065,0.25565248902421445],"scale":[0.03798917855601758,0.03798917855601758,0.03798917855601758],"mesh":17},{"name":"hinge_top_rotator_right","translation":[0.23596443235874176,0.3909169470425695,0.25565248902421445],"scale":[0.03798917855601758,0.03798917855601758,0.03798917855601758],"mesh":18}],"scenes":[{"name":"Scene","nodes":[0,1,2,3,4,5,6,7,8,9,10,11,12,13,14,15,16,17,18]}],"scene":0,"extensionsUsed":["EXT_meshopt_compression","KHR_mesh_quantization","KHR_texture_basisu"],"extensionsRequired":["EXT_meshopt_compression","KHR_mesh_quantization"]}