{"asset":{"generator":"glTF-Transform v4.5.1","version":"2.0"},"extras":{"homesteadOptimized":true},"accessors":[{"type":"SCALAR","componentType":5123,"count":16824,"normalized":false,"byteOffset":0,"bufferView":0},{"type":"SCALAR","componentType":5123,"count":9924,"normalized":false,"byteOffset":33648,"bufferView":0},{"type":"VEC3","componentType":5122,"count":3884,"max":[26279,22938,31603],"min":[-26279,-32767,-30639],"normalized":true,"byteOffset":0,"bufferView":1},{"type":"VEC3","componentType":5122,"count":3884,"normalized":true,"byteOffset":0,"bufferView":2},{"type":"VEC2","componentType":5123,"count":3884,"normalized":true,"byteOffset":0,"bufferView":3},{"type":"VEC3","componentType":5122,"count":1967,"max":[22746,32767,29879],"min":[-22958,-10529,-31603],"normalized":true,"byteOffset":0,"bufferView":4},{"type":"VEC3","componentType":5122,"count":1967,"normalized":true,"byteOffset":0,"bufferView":5},{"type":"VEC2","componentType":5123,"count":1967,"normalized":true,"byteOffset":0,"bufferView":6}],"bufferViews":[{"buffer":1,"byteOffset":0,"byteLength":53496,"target":34963,"extensions":{"EXT_meshopt_compression":{"buffer":0,"byteOffset":0,"byteLength":9974,"mode":"TRIANGLES","byteStride":2,"count":26748}}},{"buffer":1,"byteOffset":53496,"byteLength":31072,"target":34962,"byteStride":8,"extensions":{"EXT_meshopt_compression":{"buffer":0,"byteOffset":9976,"byteLength":18154,"mode":"ATTRIBUTES","byteStride":8,"count":3884}}},{"buffer":1,"byteOffset":84568,"byteLength":31072,"target":34962,"byteStride":8,"extensions":{"EXT_meshopt_compression":{"buffer":0,"byteOffset":28132,"byteLength":21358,"mode":"ATTRIBUTES","byteStride":8,"count":3884}}},{"buffer":1,"byteOffset":115640,"byteLength":15536,"target":34962,"byteStride":4,"extensions":{"EXT_meshopt_compression":{"buffer":0,"byteOffset":49492,"byteLength":10941,"mode":"ATTRIBUTES","byteStride":4,"count":3884}}},{"buffer":1,"byteOffset":131176,"byteLength":15736,"target":34962,"byteStride":8,"extensions":{"EXT_meshopt_compression":{"buffer":0,"byteOffset":60436,"byteLength":10431,"mode":"ATTRIBUTES","byteStride":8,"count":1967}}},{"buffer":1,"byteOffset":146912,"byteLength":15736,"target":34962,"byteStride":8,"extensions":{"EXT_meshopt_compression":{"buffer":0,"byteOffset":70868,"byteLength":11065,"mode":"ATTRIBUTES","byteStride":8,"count":1967}}},{"buffer":1,"byteOffset":162648,"byteLength":7868,"target":34962,"byteStride":4,"extensions":{"EXT_meshopt_compression":{"buffer":0,"byteOffset":81936,"byteLength":5975,"mode":"ATTRIBUTES","byteStride":4,"count":1967}}}],"samplers":[{"magFilter":9729,"minFilter":9987,"wrapS":10497,"wrapT":10497}],"textures":[{"source":1,"sampler":0,"extensions":{"KHR_texture_basisu":{"source":6}}},{"source":0,"sampler":0,"extensions":{"KHR_texture_basisu":{"source":7}}},{"source":2,"sampler":0,"extensions":{"KHR_texture_basisu":{"source":8}}},{"source":4,"sampler":0,"extensions":{"KHR_texture_basisu":{"source":9}}},{"source":3,"sampler":0,"extensions":{"KHR_texture_basisu":{"source":10}}},{"source":5,"sampler":0,"extensions":{"KHR_texture_basisu":{"source":11}}}],"images":[{"name":"modern_arm_chair_01_legs_nor_gl","mimeType":"image/jpeg","uri":"textures/modern_arm_chair_01_legs_nor_gl_2k.jpg"},{"name":"modern_arm_chair_01_legs_diff","mimeType":"image/jpeg","uri":"textures/modern_arm_chair_01_legs_diff_2k.jpg"},{"name":"modern_arm_chair_01_legs_metal-modern_arm_chair_01_legs_rough","mimeType":"image/jpeg","uri":"textures/modern_arm_chair_01_legs_arm_2k.jpg"},{"name":"modern_arm_chair_01_pillow_nor_gl","mimeType":"image/jpeg","uri":"textures/modern_arm_chair_01_pillow_nor_gl_2k.jpg"},{"name":"modern_arm_chair_01_pillow_diff","mimeType":"image/jpeg","uri":"textures/modern_arm_chair_01_pillow_diff_2k.jpg"},{"name":"modern_arm_chair_01_pillow_metal-modern_arm_chair_01_pillow_rough","mimeType":"image/jpeg","uri":"textures/modern_arm_chair_01_pillow_arm_2k.jpg"},{"uri":"textures/modern_arm_chair_01_legs_diff_2k.ktx2","mimeType":"image/ktx2"},{"uri":"textures/modern_arm_chair_01_legs_nor_gl_2k.ktx2","mimeType":"image/ktx2"},{"uri":"textures/modern_arm_chair_01_legs_arm_2k.ktx2","mimeType":"image/ktx2"},{"uri":"textures/modern_arm_chair_01_pillow_diff_2k.ktx2","mimeType":"image/ktx2"},{"uri":"textures/modern_arm_chair_01_pillow_nor_gl_2k.ktx2","mimeType":"image/ktx2"},{"uri":"textures/modern_arm_chair_01_pillow_arm_2k.ktx2","mimeType":"image/ktx2"}],"buffers":[{"uri":"compressed-0.bin","byteLength":87912},{"byteLength":170516,"extensions":{"EXT_meshopt_compression":{"fallback":true}}}],"materials":[{"name":"modern_arm_chair_01_legs","doubleSided":true,"pbrMetallicRoughness":{"baseColorTexture":{"index":0},"metallicRoughnessTexture":{"index":2}},"normalTexture":{"index":1}},{"name":"modern_arm_chair_01_pillow","doubleSided":true,"pbrMetallicRoughness":{"baseColorTexture":{"index":3},"metallicRoughnessTexture":{"index":5}},"normalTexture":{"index":4}}],"meshes":[{"name":"Cube.007","primitives":[{"attributes":{"POSITION":2,"NORMAL":3,"TEXCOORD_0":4},"mode":4,"material":0,"indices":0},{"attributes":{"POSITION":5,"NORMAL":6,"TEXCOORD_0":7},"mode":4,"material":1,"indices":1}]}],"nodes":[{"name":"modern_arm_chair_01","translation":[0.003363475203514099,0.5118076237413334,-0.08217088878154755],"scale":[0.5114260283735348,0.5114260283735348,0.5114260283735348],"mesh":0}],"scenes":[{"name":"blend_export.001","nodes":[0]}],"scene":0,"extensionsUsed":["EXT_meshopt_compression","KHR_mesh_quantization","KHR_texture_basisu"],"extensionsRequired":["EXT_meshopt_compression","KHR_mesh_quantization"]}