{
  "asset": {
    "generator": "glTF-Transform v4.5.1",
    "version": "2.0"
  },
  "extras": {
    "homesteadOptimized": true
  },
  "accessors": [
    {
      "type": "SCALAR",
      "componentType": 5123,
      "count": 16824,
      "bufferView": 0,
      "byteOffset": 0
    },
    {
      "type": "SCALAR",
      "componentType": 5123,
      "count": 9924,
      "bufferView": 0,
      "byteOffset": 33648
    },
    {
      "type": "VEC3",
      "componentType": 5126,
      "count": 3884,
      "max": [
        0.4135356843471527,
        0.8698092699050903,
        0.41110995411872864
      ],
      "min": [
        -0.4068087339401245,
        0.0003815953677985817,
        -0.56038498878479
      ],
      "bufferView": 1,
      "byteOffset": 0
    },
    {
      "type": "VEC3",
      "componentType": 5126,
      "count": 3884,
      "bufferView": 1,
      "byteOffset": 12
    },
    {
      "type": "VEC2",
      "componentType": 5126,
      "count": 3884,
      "bufferView": 1,
      "byteOffset": 24
    },
    {
      "type": "VEC3",
      "componentType": 5126,
      "count": 1967,
      "max": [
        0.3583531975746155,
        1.0232336521148682,
        0.38417327404022217
      ],
      "min": [
        -0.3549351990222931,
        0.34748637676239014,
        -0.5754517316818237
      ],
      "bufferView": 2,
      "byteOffset": 0
    },
    {
      "type": "VEC3",
      "componentType": 5126,
      "count": 1967,
      "bufferView": 2,
      "byteOffset": 12
    },
    {
      "type": "VEC2",
      "componentType": 5126,
      "count": 1967,
      "bufferView": 2,
      "byteOffset": 24
    }
  ],
  "bufferViews": [
    {
      "buffer": 0,
      "byteOffset": 0,
      "byteLength": 53496,
      "target": 34963
    },
    {
      "buffer": 0,
      "byteOffset": 53496,
      "byteLength": 124288,
      "byteStride": 32,
      "target": 34962
    },
    {
      "buffer": 0,
      "byteOffset": 177784,
      "byteLength": 62944,
      "byteStride": 32,
      "target": 34962
    }
  ],
  "samplers": [
    {
      "magFilter": 9729,
      "minFilter": 9987,
      "wrapS": 10497,
      "wrapT": 10497
    }
  ],
  "textures": [
    {
      "source": 1,
      "sampler": 0
    },
    {
      "source": 0,
      "sampler": 0
    },
    {
      "source": 2,
      "sampler": 0
    },
    {
      "source": 4,
      "sampler": 0
    },
    {
      "source": 3,
      "sampler": 0
    },
    {
      "source": 5,
      "sampler": 0
    }
  ],
  "images": [
    {
      "name": "modern_arm_chair_01_legs_nor_gl",
      "mimeType": "image/jpeg",
      "uri": "textures/modern_arm_chair_01_legs_nor_gl_2k.jpg"
    },
    {
      "name": "modern_arm_chair_01_legs_diff",
      "mimeType": "image/jpeg",
      "uri": "textures/modern_arm_chair_01_legs_diff_2k.jpg"
    },
    {
      "name": "modern_arm_chair_01_legs_metal-modern_arm_chair_01_legs_rough",
      "mimeType": "image/jpeg",
      "uri": "textures/modern_arm_chair_01_legs_arm_2k.jpg"
    },
    {
      "name": "modern_arm_chair_01_pillow_nor_gl",
      "mimeType": "image/jpeg",
      "uri": "textures/modern_arm_chair_01_pillow_nor_gl_2k.jpg"
    },
    {
      "name": "modern_arm_chair_01_pillow_diff",
      "mimeType": "image/jpeg",
      "uri": "textures/modern_arm_chair_01_pillow_diff_2k.jpg"
    },
    {
      "name": "modern_arm_chair_01_pillow_metal-modern_arm_chair_01_pillow_rough",
      "mimeType": "image/jpeg",
      "uri": "textures/modern_arm_chair_01_pillow_arm_2k.jpg"
    }
  ],
  "buffers": [
    {
      "uri": "modern_arm_chair_01.bin",
      "byteLength": 240728
    }
  ],
  "materials": [
    {
      "name": "modern_arm_chair_01_legs",
      "doubleSided": true,
      "pbrMetallicRoughness": {
        "baseColorTexture": {
          "index": 0
        },
        "metallicRoughnessTexture": {
          "index": 2
        }
      },
      "normalTexture": {
        "index": 1
      }
    },
    {
      "name": "modern_arm_chair_01_pillow",
      "doubleSided": true,
      "pbrMetallicRoughness": {
        "baseColorTexture": {
          "index": 3
        },
        "metallicRoughnessTexture": {
          "index": 5
        }
      },
      "normalTexture": {
        "index": 4
      }
    }
  ],
  "meshes": [
    {
      "name": "Cube.007",
      "primitives": [
        {
          "attributes": {
            "POSITION": 2,
            "NORMAL": 3,
            "TEXCOORD_0": 4
          },
          "mode": 4,
          "material": 0,
          "indices": 0
        },
        {
          "attributes": {
            "POSITION": 5,
            "NORMAL": 6,
            "TEXCOORD_0": 7
          },
          "mode": 4,
          "material": 1,
          "indices": 1
        }
      ]
    }
  ],
  "nodes": [
    {
      "name": "modern_arm_chair_01",
      "mesh": 0
    }
  ],
  "scenes": [
    {
      "name": "blend_export.001",
      "nodes": [
        0
      ]
    }
  ],
  "scene": 0
}