{"asset":{"generator":"glTF-Transform v4.5.1","version":"2.0"},"extras":{"homesteadOptimized":true},"accessors":[{"type":"SCALAR","componentType":5123,"count":3612,"normalized":false,"byteOffset":0,"bufferView":0},{"type":"SCALAR","componentType":5123,"count":93642,"normalized":false,"byteOffset":7224,"bufferView":0},{"type":"SCALAR","componentType":5123,"count":9198,"normalized":false,"byteOffset":194508,"bufferView":0},{"type":"SCALAR","componentType":5123,"count":37920,"normalized":false,"byteOffset":212904,"bufferView":0},{"type":"VEC3","componentType":5122,"count":931,"max":[14173,32767,15045],"min":[-14173,-32767,-15045],"normalized":true,"byteOffset":0,"bufferView":1},{"type":"VEC3","componentType":5122,"count":931,"normalized":true,"byteOffset":0,"bufferView":2},{"type":"VEC2","componentType":5123,"count":931,"normalized":true,"byteOffset":0,"bufferView":3},{"type":"VEC3","componentType":5122,"count":21898,"max":[32715,4684,32767],"min":[-32715,-4684,-32767],"normalized":true,"byteOffset":0,"bufferView":4},{"type":"VEC3","componentType":5122,"count":21898,"normalized":true,"byteOffset":0,"bufferView":5},{"type":"VEC2","componentType":5123,"count":21898,"normalized":true,"byteOffset":0,"bufferView":6},{"type":"VEC3","componentType":5122,"count":2010,"max":[28687,32767,28687],"min":[-28687,-32767,-28687],"normalized":true,"byteOffset":0,"bufferView":7},{"type":"VEC3","componentType":5122,"count":2010,"normalized":true,"byteOffset":0,"bufferView":8},{"type":"VEC2","componentType":5123,"count":2010,"normalized":true,"byteOffset":0,"bufferView":9},{"type":"VEC3","componentType":5122,"count":12636,"max":[25555,32767,27563],"min":[-25555,-32767,-27563],"normalized":true,"byteOffset":0,"bufferView":10},{"type":"VEC3","componentType":5122,"count":12636,"normalized":true,"byteOffset":0,"bufferView":11},{"type":"VEC2","componentType":5123,"count":12636,"normalized":true,"byteOffset":0,"bufferView":12}],"bufferViews":[{"buffer":1,"byteOffset":0,"byteLength":288744,"target":34963,"extensions":{"EXT_meshopt_compression":{"buffer":0,"byteOffset":0,"byteLength":53553,"mode":"TRIANGLES","byteStride":2,"count":144372}}},{"buffer":1,"byteOffset":288744,"byteLength":7448,"target":34962,"byteStride":8,"extensions":{"EXT_meshopt_compression":{"buffer":0,"byteOffset":53556,"byteLength":4764,"mode":"ATTRIBUTES","byteStride":8,"count":931}}},{"buffer":1,"byteOffset":296192,"byteLength":7448,"target":34962,"byteStride":8,"extensions":{"EXT_meshopt_compression":{"buffer":0,"byteOffset":58320,"byteLength":5763,"mode":"ATTRIBUTES","byteStride":8,"count":931}}},{"buffer":1,"byteOffset":303640,"byteLength":3724,"target":34962,"byteStride":4,"extensions":{"EXT_meshopt_compression":{"buffer":0,"byteOffset":64084,"byteLength":3058,"mode":"ATTRIBUTES","byteStride":4,"count":931}}},{"buffer":1,"byteOffset":307364,"byteLength":175184,"target":34962,"byteStride":8,"extensions":{"EXT_meshopt_compression":{"buffer":0,"byteOffset":67144,"byteLength":106490,"mode":"ATTRIBUTES","byteStride":8,"count":21898}}},{"buffer":1,"byteOffset":482548,"byteLength":175184,"target":34962,"byteStride":8,"extensions":{"EXT_meshopt_compression":{"buffer":0,"byteOffset":173636,"byteLength":134102,"mode":"ATTRIBUTES","byteStride":8,"count":21898}}},{"buffer":1,"byteOffset":657732,"byteLength":87592,"target":34962,"byteStride":4,"extensions":{"EXT_meshopt_compression":{"buffer":0,"byteOffset":307740,"byteLength":68277,"mode":"ATTRIBUTES","byteStride":4,"count":21898}}},{"buffer":1,"byteOffset":745324,"byteLength":16080,"target":34962,"byteStride":8,"extensions":{"EXT_meshopt_compression":{"buffer":0,"byteOffset":376020,"byteLength":10732,"mode":"ATTRIBUTES","byteStride":8,"count":2010}}},{"buffer":1,"byteOffset":761404,"byteLength":16080,"target":34962,"byteStride":8,"extensions":{"EXT_meshopt_compression":{"buffer":0,"byteOffset":386752,"byteLength":11292,"mode":"ATTRIBUTES","byteStride":8,"count":2010}}},{"buffer":1,"byteOffset":777484,"byteLength":8040,"target":34962,"byteStride":4,"extensions":{"EXT_meshopt_compression":{"buffer":0,"byteOffset":398044,"byteLength":5778,"mode":"ATTRIBUTES","byteStride":4,"count":2010}}},{"buffer":1,"byteOffset":785524,"byteLength":101088,"target":34962,"byteStride":8,"extensions":{"EXT_meshopt_compression":{"buffer":0,"byteOffset":403824,"byteLength":59080,"mode":"ATTRIBUTES","byteStride":8,"count":12636}}},{"buffer":1,"byteOffset":886612,"byteLength":101088,"target":34962,"byteStride":8,"extensions":{"EXT_meshopt_compression":{"buffer":0,"byteOffset":462904,"byteLength":75903,"mode":"ATTRIBUTES","byteStride":8,"count":12636}}},{"buffer":1,"byteOffset":987700,"byteLength":50544,"target":34962,"byteStride":4,"extensions":{"EXT_meshopt_compression":{"buffer":0,"byteOffset":538808,"byteLength":48189,"mode":"ATTRIBUTES","byteStride":4,"count":12636}}}],"samplers":[{"magFilter":9729,"minFilter":9987,"wrapS":10497,"wrapT":10497}],"textures":[{"source":1,"sampler":0,"extensions":{"KHR_texture_basisu":{"source":6}}},{"source":0,"sampler":0,"extensions":{"KHR_texture_basisu":{"source":7}}},{"source":2,"sampler":0,"extensions":{"KHR_texture_basisu":{"source":8}}},{"source":4,"sampler":0,"extensions":{"KHR_texture_basisu":{"source":9}}},{"source":3,"sampler":0,"extensions":{"KHR_texture_basisu":{"source":10}}},{"source":5,"sampler":0,"extensions":{"KHR_texture_basisu":{"source":11}}}],"images":[{"name":"potted_plant_01_pot_nor_gl","mimeType":"image/jpeg","uri":"textures/potted_plant_01_pot_nor_gl_2k.jpg"},{"name":"potted_plant_01_pot_diff","mimeType":"image/jpeg","uri":"textures/potted_plant_01_pot_diff_2k.jpg"},{"name":"potted_plant_01_pot_rough","mimeType":"image/jpeg","uri":"textures/potted_plant_01_pot_rough_2k.jpg"},{"name":"potted_plant_01_leaves_nor_gl.png","mimeType":"image/jpeg","uri":"textures/potted_plant_01_leaves_nor_gl_2k.jpg"},{"name":"potted_plant_01_leaves_diff.png","mimeType":"image/jpeg","uri":"textures/potted_plant_01_leaves_diff_2k.jpg"},{"name":"potted_plant_01_leaves_rough.png","mimeType":"image/jpeg","uri":"textures/potted_plant_01_leaves_rough_2k.jpg"},{"uri":"textures/potted_plant_01_pot_diff_2k.ktx2","mimeType":"image/ktx2"},{"uri":"textures/potted_plant_01_pot_nor_gl_2k.ktx2","mimeType":"image/ktx2"},{"uri":"textures/potted_plant_01_pot_rough_2k.ktx2","mimeType":"image/ktx2"},{"uri":"textures/potted_plant_01_leaves_diff_2k.ktx2","mimeType":"image/ktx2"},{"uri":"textures/potted_plant_01_leaves_nor_gl_2k.ktx2","mimeType":"image/ktx2"},{"uri":"textures/potted_plant_01_leaves_rough_2k.ktx2","mimeType":"image/ktx2"}],"buffers":[{"uri":"compressed-0.bin","byteLength":587000},{"byteLength":1038244,"extensions":{"EXT_meshopt_compression":{"fallback":true}}}],"materials":[{"name":"potted_plant_01_pot","doubleSided":true,"pbrMetallicRoughness":{"metallicFactor":0,"baseColorTexture":{"index":0},"metallicRoughnessTexture":{"index":2}},"normalTexture":{"index":1}},{"name":"potted_plant_01_leaves","alphaMode":"MASK","alphaCutoff":0.5,"doubleSided":true,"pbrMetallicRoughness":{"metallicFactor":0,"baseColorTexture":{"index":3},"metallicRoughnessTexture":{"index":5}},"normalTexture":{"index":4}}],"meshes":[{"name":"potted_plant_01_base_low","primitives":[{"attributes":{"POSITION":4,"NORMAL":5,"TEXCOORD_0":6},"mode":4,"material":0,"indices":0}]},{"name":"Circle.008","primitives":[{"attributes":{"POSITION":7,"NORMAL":8,"TEXCOORD_0":9},"mode":4,"material":0,"indices":1}]},{"name":"Circle.002","primitives":[{"attributes":{"POSITION":10,"NORMAL":11,"TEXCOORD_0":12},"mode":4,"material":0,"indices":2}]},{"name":"Plane.070","primitives":[{"attributes":{"POSITION":13,"NORMAL":14,"TEXCOORD_0":15},"mode":4,"material":1,"indices":3}]}],"nodes":[{"name":"potted_plant_01_stem","translation":[-0.04932309687137604,0.8388078361749649,-0.02070803940296173],"scale":[0.42777834832668304,0.42777834832668304,0.42777834832668304],"mesh":0},{"name":"potted_plant_01_pebbles","translation":[-0.003453652926808104,0.4994688195155277,-0.002369097040777035],"scale":[0.21548728179428878,0.21548728179428878,0.21548728179428878],"mesh":1},{"name":"potted_plant_01_pot","translation":[1.4901161193847656e-8,0.26581314137001755,-1.4901161193847656e-8],"scale":[0.26561996409873245,0.26561996409873245,0.26561996409873245],"mesh":2},{"name":"potted_plant_01_leaves","translation":[-0.04467437416315079,0.9598705172538757,-0.04689638316631317],"scale":[0.3765868544578552,0.3765868544578552,0.3765868544578552],"mesh":3}],"scenes":[{"name":"Scene","nodes":[0,1,2,3]}],"scene":0,"extensionsUsed":["EXT_meshopt_compression","KHR_mesh_quantization","KHR_texture_basisu"],"extensionsRequired":["EXT_meshopt_compression","KHR_mesh_quantization"]}