{"asset":{"generator":"glTF-Transform v4.5.1","version":"2.0"},"extras":{"homesteadOptimized":true},"accessors":[{"type":"SCALAR","componentType":5123,"count":15561,"normalized":false,"byteOffset":0,"bufferView":0},{"type":"SCALAR","componentType":5123,"count":17454,"normalized":false,"byteOffset":31122,"bufferView":0},{"type":"SCALAR","componentType":5123,"count":5091,"normalized":false,"byteOffset":66030,"bufferView":0},{"type":"VEC3","componentType":5122,"count":5071,"max":[17074,30059,25763],"min":[-13885,-8253,-28931],"normalized":true,"byteOffset":0,"bufferView":1},{"type":"VEC3","componentType":5122,"count":5071,"normalized":true,"byteOffset":0,"bufferView":2},{"type":"VEC2","componentType":5123,"count":5071,"normalized":true,"byteOffset":0,"bufferView":3},{"type":"VEC3","componentType":5122,"count":9955,"max":[20730,32767,28931],"min":[-20730,-10301,-28907],"normalized":true,"byteOffset":0,"bufferView":4},{"type":"VEC3","componentType":5122,"count":9955,"normalized":true,"byteOffset":0,"bufferView":5},{"type":"VEC2","componentType":5123,"count":9955,"normalized":true,"byteOffset":0,"bufferView":6},{"type":"VEC3","componentType":5122,"count":1320,"max":[11549,20382,16970],"min":[-12573,-32767,-16349],"normalized":true,"byteOffset":0,"bufferView":7},{"type":"VEC3","componentType":5122,"count":1320,"normalized":true,"byteOffset":0,"bufferView":8},{"type":"VEC2","componentType":5123,"count":1320,"normalized":true,"byteOffset":0,"bufferView":9}],"bufferViews":[{"buffer":1,"byteOffset":0,"byteLength":76212,"target":34963,"extensions":{"EXT_meshopt_compression":{"buffer":0,"byteOffset":0,"byteLength":13209,"mode":"TRIANGLES","byteStride":2,"count":38106}}},{"buffer":1,"byteOffset":76212,"byteLength":40568,"target":34962,"byteStride":8,"extensions":{"EXT_meshopt_compression":{"buffer":0,"byteOffset":13212,"byteLength":23780,"mode":"ATTRIBUTES","byteStride":8,"count":5071}}},{"buffer":1,"byteOffset":116780,"byteLength":40568,"target":34962,"byteStride":8,"extensions":{"EXT_meshopt_compression":{"buffer":0,"byteOffset":36992,"byteLength":30979,"mode":"ATTRIBUTES","byteStride":8,"count":5071}}},{"buffer":1,"byteOffset":157348,"byteLength":20284,"target":34962,"byteStride":4,"extensions":{"EXT_meshopt_compression":{"buffer":0,"byteOffset":67972,"byteLength":18043,"mode":"ATTRIBUTES","byteStride":4,"count":5071}}},{"buffer":1,"byteOffset":177632,"byteLength":79640,"target":34962,"byteStride":8,"extensions":{"EXT_meshopt_compression":{"buffer":0,"byteOffset":86016,"byteLength":46643,"mode":"ATTRIBUTES","byteStride":8,"count":9955}}},{"buffer":1,"byteOffset":257272,"byteLength":79640,"target":34962,"byteStride":8,"extensions":{"EXT_meshopt_compression":{"buffer":0,"byteOffset":132660,"byteLength":61015,"mode":"ATTRIBUTES","byteStride":8,"count":9955}}},{"buffer":1,"byteOffset":336912,"byteLength":39820,"target":34962,"byteStride":4,"extensions":{"EXT_meshopt_compression":{"buffer":0,"byteOffset":193676,"byteLength":40463,"mode":"ATTRIBUTES","byteStride":4,"count":9955}}},{"buffer":1,"byteOffset":376732,"byteLength":10560,"target":34962,"byteStride":8,"extensions":{"EXT_meshopt_compression":{"buffer":0,"byteOffset":234140,"byteLength":6387,"mode":"ATTRIBUTES","byteStride":8,"count":1320}}},{"buffer":1,"byteOffset":387292,"byteLength":10560,"target":34962,"byteStride":8,"extensions":{"EXT_meshopt_compression":{"buffer":0,"byteOffset":240528,"byteLength":8139,"mode":"ATTRIBUTES","byteStride":8,"count":1320}}},{"buffer":1,"byteOffset":397852,"byteLength":5280,"target":34962,"byteStride":4,"extensions":{"EXT_meshopt_compression":{"buffer":0,"byteOffset":248668,"byteLength":4785,"mode":"ATTRIBUTES","byteStride":4,"count":1320}}}],"samplers":[{"magFilter":9729,"minFilter":9987,"wrapS":10497,"wrapT":10497}],"textures":[{"source":1,"sampler":0,"extensions":{"KHR_texture_basisu":{"source":9}}},{"source":0,"sampler":0,"extensions":{"KHR_texture_basisu":{"source":10}}},{"source":2,"sampler":0,"extensions":{"KHR_texture_basisu":{"source":11}}},{"source":4,"sampler":0,"extensions":{"KHR_texture_basisu":{"source":12}}},{"source":3,"sampler":0,"extensions":{"KHR_texture_basisu":{"source":13}}},{"source":5,"sampler":0,"extensions":{"KHR_texture_basisu":{"source":14}}},{"source":7,"sampler":0,"extensions":{"KHR_texture_basisu":{"source":15}}},{"source":6,"sampler":0,"extensions":{"KHR_texture_basisu":{"source":16}}},{"source":8,"sampler":0,"extensions":{"KHR_texture_basisu":{"source":17}}}],"images":[{"name":"tree_small_02_branch_nor_gl","mimeType":"image/jpeg","uri":"textures/tree_small_02_branch_nor_gl_1k.jpg"},{"name":"tree_small_02_branch_diff","mimeType":"image/jpeg","uri":"textures/tree_small_02_branch_diff_1k.jpg"},{"name":"tree_small_02_branch_rough","mimeType":"image/jpeg","uri":"textures/tree_small_02_branch_arm_1k.jpg"},{"name":"tree_small_02_leaves_nor_gl","mimeType":"image/jpeg","uri":"textures/tree_small_02_leaves_nor_gl_1k.jpg"},{"name":"tree_small_02_leaves_diff-tree_small_02_leaves_alpha","mimeType":"image/jpeg","uri":"textures/tree_small_02_leaves_diff_1k.jpg"},{"name":"tree_small_02_leaves_rough","mimeType":"image/jpeg","uri":"textures/tree_small_02_leaves_arm_1k.jpg"},{"name":"tree_small_02_nor_gl","mimeType":"image/jpeg","uri":"textures/tree_small_02_nor_gl_1k.jpg"},{"name":"tree_small_02_diff","mimeType":"image/jpeg","uri":"textures/tree_small_02_diff_1k.jpg"},{"name":"tree_small_02_rough","mimeType":"image/jpeg","uri":"textures/tree_small_02_arm_1k.jpg"},{"uri":"textures/tree_small_02_branch_diff_1k.ktx2","mimeType":"image/ktx2"},{"uri":"textures/tree_small_02_branch_nor_gl_1k.ktx2","mimeType":"image/ktx2"},{"uri":"textures/tree_small_02_branch_arm_1k.ktx2","mimeType":"image/ktx2"},{"uri":"textures/tree_small_02_leaves_diff_1k.ktx2","mimeType":"image/ktx2"},{"uri":"textures/tree_small_02_leaves_nor_gl_1k.ktx2","mimeType":"image/ktx2"},{"uri":"textures/tree_small_02_leaves_arm_1k.ktx2","mimeType":"image/ktx2"},{"uri":"textures/tree_small_02_diff_1k.ktx2","mimeType":"image/ktx2"},{"uri":"textures/tree_small_02_nor_gl_1k.ktx2","mimeType":"image/ktx2"},{"uri":"textures/tree_small_02_arm_1k.ktx2","mimeType":"image/ktx2"}],"buffers":[{"uri":"compressed-0.bin","byteLength":253456},{"byteLength":403132,"extensions":{"EXT_meshopt_compression":{"fallback":true}}}],"materials":[{"name":"tree_small_02_branches","doubleSided":true,"pbrMetallicRoughness":{"metallicFactor":0,"baseColorTexture":{"index":0,"extensions":{"KHR_texture_transform":{"offset":[0,0.40000009536743164],"scale":[3,0.5999999046325684]}}},"metallicRoughnessTexture":{"index":2,"extensions":{"KHR_texture_transform":{"offset":[0,0.40000009536743164],"scale":[3,0.5999999046325684]}}}},"normalTexture":{"index":1,"extensions":{"KHR_texture_transform":{"offset":[0,0.40000009536743164],"scale":[3,0.5999999046325684]}}}},{"name":"tree_small_02_leaves","alphaMode":"BLEND","doubleSided":true,"pbrMetallicRoughness":{"metallicFactor":0,"baseColorTexture":{"index":3},"metallicRoughnessTexture":{"index":5}},"normalTexture":{"index":4}},{"name":"tree_small_02_trunk","doubleSided":true,"pbrMetallicRoughness":{"metallicFactor":0,"baseColorTexture":{"index":6},"metallicRoughnessTexture":{"index":8}},"normalTexture":{"index":7}}],"meshes":[{"name":"BezierCurve.002","primitives":[{"attributes":{"POSITION":3,"NORMAL":4,"TEXCOORD_0":5},"mode":4,"material":0,"indices":0},{"attributes":{"POSITION":6,"NORMAL":7,"TEXCOORD_0":8},"mode":4,"material":1,"indices":1},{"attributes":{"POSITION":9,"NORMAL":10,"TEXCOORD_0":11},"mode":4,"material":2,"indices":2}]}],"nodes":[{"name":"tree_small_02_LOD0","translation":[0.12804996967315674,2.246940671466291,0.741998553276062],"scale":[2.270972670055926,2.270972670055926,2.270972670055926],"mesh":0}],"scenes":[{"name":"Scene","nodes":[0]}],"scene":0,"extensionsUsed":["EXT_meshopt_compression","KHR_mesh_quantization","KHR_texture_transform","KHR_texture_basisu"],"extensionsRequired":["EXT_meshopt_compression","KHR_mesh_quantization","KHR_texture_transform"]}