{"asset":{"generator":"glTF-Transform v4.5.1","version":"2.0"},"extras":{"homesteadOptimized":true},"accessors":[{"type":"SCALAR","componentType":5123,"count":12294,"normalized":false,"byteOffset":0,"bufferView":0},{"type":"VEC3","componentType":5122,"count":4422,"max":[32767,12305,8201],"min":[-32767,-12305,-8201],"normalized":true,"byteOffset":0,"bufferView":1},{"type":"VEC2","componentType":5123,"count":4422,"normalized":true,"byteOffset":0,"bufferView":2},{"type":"VEC3","componentType":5122,"count":4422,"normalized":true,"byteOffset":0,"bufferView":3}],"bufferViews":[{"buffer":1,"byteOffset":0,"byteLength":24588,"target":34963,"extensions":{"EXT_meshopt_compression":{"buffer":0,"byteOffset":0,"byteLength":4204,"mode":"TRIANGLES","byteStride":2,"count":12294}}},{"buffer":1,"byteOffset":24588,"byteLength":35376,"target":34962,"byteStride":8,"extensions":{"EXT_meshopt_compression":{"buffer":0,"byteOffset":4204,"byteLength":21155,"mode":"ATTRIBUTES","byteStride":8,"count":4422}}},{"buffer":1,"byteOffset":59964,"byteLength":17688,"target":34962,"byteStride":4,"extensions":{"EXT_meshopt_compression":{"buffer":0,"byteOffset":25360,"byteLength":17637,"mode":"ATTRIBUTES","byteStride":4,"count":4422}}},{"buffer":1,"byteOffset":77652,"byteLength":35376,"target":34962,"byteStride":8,"extensions":{"EXT_meshopt_compression":{"buffer":0,"byteOffset":43000,"byteLength":27139,"mode":"ATTRIBUTES","byteStride":8,"count":4422}}}],"samplers":[{"magFilter":9729,"minFilter":9987,"wrapS":10497,"wrapT":10497}],"textures":[{"source":1,"sampler":0,"extensions":{"KHR_texture_basisu":{"source":3}}},{"source":0,"sampler":0,"extensions":{"KHR_texture_basisu":{"source":4}}},{"source":2,"sampler":0,"extensions":{"KHR_texture_basisu":{"source":5}}}],"images":[{"name":"shrub_04_nor_gl","mimeType":"image/jpeg","uri":"textures/shrub_04_nor_gl_1k.jpg"},{"name":"shrub_04_diff","mimeType":"image/jpeg","uri":"textures/shrub_04_diff_1k.jpg"},{"name":"shrub_04_rough","mimeType":"image/jpeg","uri":"textures/shrub_04_arm_1k.jpg"},{"uri":"textures/shrub_04_diff_1k.ktx2","mimeType":"image/ktx2"},{"uri":"textures/shrub_04_nor_gl_1k.ktx2","mimeType":"image/ktx2"},{"uri":"textures/shrub_04_arm_1k.ktx2","mimeType":"image/ktx2"}],"buffers":[{"uri":"compressed-0.bin","byteLength":70140},{"byteLength":113028,"extensions":{"EXT_meshopt_compression":{"fallback":true}}}],"materials":[{"name":"shrub_04","alphaMode":"MASK","alphaCutoff":0.5,"doubleSided":true,"pbrMetallicRoughness":{"metallicFactor":0,"baseColorTexture":{"index":0},"metallicRoughnessTexture":{"index":2}},"normalTexture":{"index":1}}],"meshes":[{"name":"Plane.063","primitives":[{"attributes":{"POSITION":1,"TEXCOORD_0":2,"NORMAL":3},"mode":4,"material":0,"indices":0}]}],"nodes":[{"name":"shrub_04","translation":[0.2673984281718731,0.10366259864531457,-0.0019609257578849792],"scale":[0.29184509441256523,0.29184509441256523,0.29184509441256523],"mesh":0}],"scenes":[{"name":"Scene","nodes":[0]}],"scene":0,"extensionsUsed":["EXT_meshopt_compression","KHR_mesh_quantization","KHR_texture_basisu"],"extensionsRequired":["EXT_meshopt_compression","KHR_mesh_quantization"]}