{"asset":{"generator":"glTF-Transform v4.5.1","version":"2.0"},"extras":{"homesteadOptimized":true},"accessors":[{"type":"SCALAR","componentType":5123,"count":7032,"normalized":false,"byteOffset":0,"bufferView":0},{"type":"SCALAR","componentType":5123,"count":1152,"normalized":false,"byteOffset":14064,"bufferView":0},{"type":"VEC3","componentType":5122,"count":1616,"max":[32767,12865,14705],"min":[-32767,-12865,-14705],"normalized":true,"byteOffset":0,"bufferView":1},{"type":"VEC3","componentType":5122,"count":1616,"normalized":true,"byteOffset":0,"bufferView":2},{"type":"VEC2","componentType":5123,"count":1616,"normalized":true,"byteOffset":0,"bufferView":3},{"type":"VEC3","componentType":5122,"count":212,"max":[32767,3792,12209],"min":[-32767,-3792,-12209],"normalized":true,"byteOffset":0,"bufferView":4},{"type":"VEC3","componentType":5122,"count":212,"normalized":true,"byteOffset":0,"bufferView":5},{"type":"VEC2","componentType":5123,"count":212,"normalized":true,"byteOffset":0,"bufferView":6}],"bufferViews":[{"buffer":1,"byteOffset":0,"byteLength":16368,"target":34963,"extensions":{"EXT_meshopt_compression":{"buffer":0,"byteOffset":0,"byteLength":3112,"mode":"TRIANGLES","byteStride":2,"count":8184}}},{"buffer":1,"byteOffset":16368,"byteLength":12928,"target":34962,"byteStride":8,"extensions":{"EXT_meshopt_compression":{"buffer":0,"byteOffset":3112,"byteLength":8019,"mode":"ATTRIBUTES","byteStride":8,"count":1616}}},{"buffer":1,"byteOffset":29296,"byteLength":12928,"target":34962,"byteStride":8,"extensions":{"EXT_meshopt_compression":{"buffer":0,"byteOffset":11132,"byteLength":9179,"mode":"ATTRIBUTES","byteStride":8,"count":1616}}},{"buffer":1,"byteOffset":42224,"byteLength":6464,"target":34962,"byteStride":4,"extensions":{"EXT_meshopt_compression":{"buffer":0,"byteOffset":20312,"byteLength":5260,"mode":"ATTRIBUTES","byteStride":4,"count":1616}}},{"buffer":1,"byteOffset":48688,"byteLength":1696,"target":34962,"byteStride":8,"extensions":{"EXT_meshopt_compression":{"buffer":0,"byteOffset":25572,"byteLength":1164,"mode":"ATTRIBUTES","byteStride":8,"count":212}}},{"buffer":1,"byteOffset":50384,"byteLength":1696,"target":34962,"byteStride":8,"extensions":{"EXT_meshopt_compression":{"buffer":0,"byteOffset":26736,"byteLength":1326,"mode":"ATTRIBUTES","byteStride":8,"count":212}}},{"buffer":1,"byteOffset":52080,"byteLength":848,"target":34962,"byteStride":4,"extensions":{"EXT_meshopt_compression":{"buffer":0,"byteOffset":28064,"byteLength":790,"mode":"ATTRIBUTES","byteStride":4,"count":212}}}],"samplers":[{"magFilter":9729,"minFilter":9987,"wrapS":10497,"wrapT":10497}],"textures":[{"source":1,"sampler":0,"extensions":{"KHR_texture_basisu":{"source":3}}},{"source":0,"sampler":0,"extensions":{"KHR_texture_basisu":{"source":4}}},{"source":2,"sampler":0,"extensions":{"KHR_texture_basisu":{"source":5}}}],"images":[{"name":"sofa_02_nor_gl","mimeType":"image/jpeg","uri":"textures/sofa_02_nor_gl_2k.jpg"},{"name":"sofa_02_diff","mimeType":"image/jpeg","uri":"textures/sofa_02_diff_2k.jpg"},{"name":"sofa_02_metallic-sofa_02_roughness","mimeType":"image/jpeg","uri":"textures/sofa_02_arm_2k.jpg"},{"uri":"textures/sofa_02_diff_2k.ktx2","mimeType":"image/ktx2"},{"uri":"textures/sofa_02_nor_gl_2k.ktx2","mimeType":"image/ktx2"},{"uri":"textures/sofa_02_arm_2k.ktx2","mimeType":"image/ktx2"}],"buffers":[{"uri":"compressed-0.bin","byteLength":28856},{"byteLength":52928,"extensions":{"EXT_meshopt_compression":{"fallback":true}}}],"materials":[{"name":"sofa_02","doubleSided":true,"pbrMetallicRoughness":{"baseColorTexture":{"index":0},"metallicRoughnessTexture":{"index":2}},"normalTexture":{"index":1}}],"meshes":[{"name":"Plane.001","primitives":[{"attributes":{"POSITION":2,"NORMAL":3,"TEXCOORD_0":4},"mode":4,"material":0,"indices":0}]},{"name":"Mesh.007","primitives":[{"attributes":{"POSITION":5,"NORMAL":6,"TEXCOORD_0":7},"mode":4,"material":0,"indices":1}]}],"nodes":[{"name":"sofa_02_Base","translation":[0.00026732211699709296,0.3549501895904541,-0.07218246906995773],"scale":[0.9035836756229401,0.9035836756229401,0.9035836756229401],"mesh":0},{"name":"sofa_02_Seat","translation":[0.0020652664243243635,0.32867466658353806,0.07625653594732285],"scale":[0.7080336213111877,0.7080336213111877,0.7080336213111877],"mesh":1}],"scenes":[{"name":"Scene","nodes":[0,1]}],"scene":0,"extensionsUsed":["EXT_meshopt_compression","KHR_mesh_quantization","KHR_texture_basisu"],"extensionsRequired":["EXT_meshopt_compression","KHR_mesh_quantization"]}