{
  "asset": {
    "generator": "glTF-Transform v4.5.1",
    "version": "2.0"
  },
  "extras": {
    "homesteadOptimized": true
  },
  "accessors": [
    {
      "type": "SCALAR",
      "componentType": 5123,
      "count": 7032,
      "bufferView": 0,
      "byteOffset": 0
    },
    {
      "type": "SCALAR",
      "componentType": 5123,
      "count": 1152,
      "bufferView": 0,
      "byteOffset": 14064
    },
    {
      "type": "VEC3",
      "componentType": 5126,
      "count": 1616,
      "max": [
        0.9035836458206177,
        0.7094888687133789,
        0.3020688593387604
      ],
      "min": [
        -0.9035837054252625,
        -5.960464477539063e-8,
        -0.5089631676673889
      ],
      "bufferView": 1,
      "byteOffset": 0
    },
    {
      "type": "VEC3",
      "componentType": 5126,
      "count": 1616,
      "bufferView": 1,
      "byteOffset": 12
    },
    {
      "type": "VEC2",
      "componentType": 5126,
      "count": 1616,
      "bufferView": 1,
      "byteOffset": 24
    },
    {
      "type": "VEC3",
      "componentType": 5126,
      "count": 212,
      "max": [
        0.7098315358161926,
        0.41038596630096436,
        0.3087882101535797
      ],
      "min": [
        -0.7062357068061829,
        0.24655179679393768,
        -0.2188045084476471
      ],
      "bufferView": 2,
      "byteOffset": 0
    },
    {
      "type": "VEC3",
      "componentType": 5126,
      "count": 212,
      "bufferView": 2,
      "byteOffset": 12
    },
    {
      "type": "VEC2",
      "componentType": 5126,
      "count": 212,
      "bufferView": 2,
      "byteOffset": 24
    }
  ],
  "bufferViews": [
    {
      "buffer": 0,
      "byteOffset": 0,
      "byteLength": 16368,
      "target": 34963
    },
    {
      "buffer": 0,
      "byteOffset": 16368,
      "byteLength": 51712,
      "byteStride": 32,
      "target": 34962
    },
    {
      "buffer": 0,
      "byteOffset": 68080,
      "byteLength": 6784,
      "byteStride": 32,
      "target": 34962
    }
  ],
  "samplers": [
    {
      "magFilter": 9729,
      "minFilter": 9987,
      "wrapS": 10497,
      "wrapT": 10497
    }
  ],
  "textures": [
    {
      "source": 1,
      "sampler": 0
    },
    {
      "source": 0,
      "sampler": 0
    },
    {
      "source": 2,
      "sampler": 0
    }
  ],
  "images": [
    {
      "name": "sofa_02_nor_gl",
      "mimeType": "image/jpeg",
      "uri": "textures/sofa_02_nor_gl_2k.jpg"
    },
    {
      "name": "sofa_02_diff",
      "mimeType": "image/jpeg",
      "uri": "textures/sofa_02_diff_2k.jpg"
    },
    {
      "name": "sofa_02_metallic-sofa_02_roughness",
      "mimeType": "image/jpeg",
      "uri": "textures/sofa_02_arm_2k.jpg"
    }
  ],
  "buffers": [
    {
      "uri": "sofa_02.bin",
      "byteLength": 74864
    }
  ],
  "materials": [
    {
      "name": "sofa_02",
      "doubleSided": true,
      "pbrMetallicRoughness": {
        "baseColorTexture": {
          "index": 0
        },
        "metallicRoughnessTexture": {
          "index": 2
        }
      },
      "normalTexture": {
        "index": 1
      }
    }
  ],
  "meshes": [
    {
      "name": "Plane.001",
      "primitives": [
        {
          "attributes": {
            "POSITION": 2,
            "NORMAL": 3,
            "TEXCOORD_0": 4
          },
          "mode": 4,
          "material": 0,
          "indices": 0
        }
      ]
    },
    {
      "name": "Mesh.007",
      "primitives": [
        {
          "attributes": {
            "POSITION": 5,
            "NORMAL": 6,
            "TEXCOORD_0": 7
          },
          "mode": 4,
          "material": 0,
          "indices": 1
        }
      ]
    }
  ],
  "nodes": [
    {
      "name": "sofa_02_Base",
      "translation": [
        0.00026735191931948066,
        0.00020578503608703613,
        0.03126468509435654
      ],
      "mesh": 0
    },
    {
      "name": "sofa_02_Seat",
      "translation": [
        0.00026735191931948066,
        0.00020578503608703613,
        0.03126468509435654
      ],
      "mesh": 1
    }
  ],
  "scenes": [
    {
      "name": "Scene",
      "nodes": [
        0,
        1
      ]
    }
  ],
  "scene": 0
}